<svg xmlns="http://www.w3.org/2000/svg" viewBox="0 0 64 64" role="img" aria-label="Partner2Impact">
  <rect width="64" height="64" rx="14" fill="#102f54"/>
  <path d="M22.6 44V20h9.9c5.6 0 8.8 2.9 8.8 7.7 0 4.9-3.3 7.9-9 7.9h-4.3V44h-5.4Zm5.4-12.6h3.7c2.7 0 4.2-1.3 4.2-3.6 0-2.3-1.5-3.5-4.2-3.5H28v7.1Z" fill="#fff"/>
  <path d="M40.2 44v-3.2l5.1-4.5c1.6-1.4 2.2-2.2 2.2-3.2 0-1.2-.9-2-2.2-2-1.4 0-2.3.9-2.3 2.4h-3.2c0-3.3 2.3-5.4 5.6-5.4 3.4 0 5.6 2 5.6 4.9 0 1.9-1 3.3-3.3 5.3l-2.6 2.3h6.1V44h-11Z" fill="#7a2246"/>
</svg>
